<?xml version="1.0" ?><svg id="Layer_1" style="enable-background:new 0 0 32 32;" version="1.1" viewBox="0 0 32 32" xml:space="preserve" xmlns="http://www.w3.org/2000/svg" xmlns:xlink="http://www.w3.org/1999/xlink"><path d="M16,2C9.53,2,4.28,7.25,4.28,13.72c0,12.19,11.25,16.17,11.36,16.22C15.76,29.98,15.87,30,16,30c0.12,0,0.24-0.02,0.35-0.06  c0.12-0.04,11.37-4.02,11.37-16.22C27.72,7.25,22.46,2,16,2z M16,19.87c-3.43,0-6.21-2.79-6.21-6.2c0-3.43,2.79-6.21,6.21-6.21  c3.42,0,6.2,2.79,6.2,6.21C22.2,17.08,19.42,19.87,16,19.87z"/></svg>