<?xml version="1.0" ?><svg fill="none" height="24" viewBox="0 0 24 24" width="24" xmlns="http://www.w3.org/2000/svg"><path clip-rule="evenodd" d="M7.70344 7C6.46987 7 5.35729 7.74172 4.88284 8.8804C4.44994 9.91936 3.86566 12.4951 3.60152 13.7249C3.52838 14.0655 3.49796 14.358 3.52143 14.6207C3.60008 15.5006 3.8728 15.9209 4.12758 16.1369C4.39507 16.3637 4.80137 16.5 5.39496 16.5C6.04844 16.5 6.65582 16.1634 7.00217 15.6092L8.64685 12.9777L10.8335 9.3333L10.3236 8.48349C10.3236 8.48348 10.3236 8.48348 10.3236 8.48347C9.77137 7.56313 8.77676 7 7.70344 7ZM11.9997 7.39072C11.0787 5.90575 9.45436 5 7.70344 5C5.66247 5 3.82167 6.2272 3.03668 8.11117C2.51649 9.35965 1.89437 12.1491 1.64612 13.305C1.55041 13.7506 1.48126 14.2604 1.52937 14.7987C1.64016 16.0383 2.06843 17.0132 2.83418 17.6624C3.58722 18.3009 4.52097 18.5 5.39496 18.5C6.73802 18.5 7.98634 17.8081 8.69816 16.6692L10.3477 14.03L10.3572 14.0145L11.9997 11.277L13.6422 14.0145L13.6517 14.03L15.3012 16.6692C16.013 17.8081 17.2613 18.5 18.6044 18.5C19.5872 18.5 20.6087 18.2197 21.3758 17.4143C22.1365 16.6155 22.4997 15.4542 22.4997 14C22.4997 13.0773 22.1498 11.7339 21.8254 10.6585C21.4873 9.5377 21.1225 8.53865 21.0104 8.2368C20.9843 8.16643 20.953 8.08603 20.9151 8.00076C20.1051 6.17933 18.2967 5 16.2959 5C14.545 5 12.9207 5.90576 11.9997 7.39072ZM13.1659 9.33331L15.3525 12.9777L16.9972 15.6092C17.3435 16.1634 17.9509 16.5 18.6044 16.5C19.2206 16.5 19.6467 16.3298 19.9275 16.035C20.2147 15.7335 20.4997 15.1448 20.4997 14C20.4997 13.4158 20.2451 12.3449 19.9106 11.2361C19.5899 10.1728 19.2413 9.2178 19.1356 8.93332C19.117 8.88318 19.102 8.84564 19.0877 8.81345C18.5982 7.7128 17.5052 7 16.2959 7C15.2226 7 14.228 7.56315 13.6758 8.48352L13.1659 9.33331Z" fill="black" fill-rule="evenodd"/></svg>